<mxfile host="Electron" modified="2024-02-20T15:04:05.227Z" agent="Mozilla/5.0 (X11; Linux x86_64) AppleWebKit/537.36 (KHTML, like Gecko) draw.io/23.1.5 Chrome/120.0.6099.109 Electron/28.1.0 Safari/537.36" etag="t7QObr-PjxMEIucnZXGr" version="23.1.5" type="device">
  <diagram name="Page-1" id="AmZ02PpDpCdU4ZoeBeq7">
    <mxGraphModel dx="562" dy="329" grid="1" gridSize="10" guides="1" tooltips="1" connect="1" arrows="1" fold="1" page="1" pageScale="1" pageWidth="827" pageHeight="1169" math="0" shadow="0">
      <root>
        <mxCell id="0" />
        <mxCell id="1" parent="0" />
        <mxCell id="IiLUU5vo45s7bjQqZv7O-25" value="" style="group;noLabel=1;labelBackgroundColor=none;fillColor=#d5e8d4;strokeColor=#82b366;rounded=0;glass=0;sketch=1;curveFitting=1;jiggle=2;shadow=0;" parent="1" vertex="1" connectable="0">
          <mxGeometry x="180" y="340" width="160" height="170" as="geometry" />
        </mxCell>
        <mxCell id="IiLUU5vo45s7bjQqZv7O-26" value="" style="rounded=0;whiteSpace=wrap;html=1;fillColor=#f8cecc;strokeColor=#b85450;shadow=0;sketch=1;curveFitting=1;jiggle=2;" parent="1" vertex="1">
          <mxGeometry x="190" y="430" width="390" height="80" as="geometry" />
        </mxCell>
        <mxCell id="IiLUU5vo45s7bjQqZv7O-12" style="edgeStyle=orthogonalEdgeStyle;rounded=0;orthogonalLoop=1;jettySize=auto;html=1;exitX=0.5;exitY=1;exitDx=0;exitDy=0;entryX=0.5;entryY=0;entryDx=0;entryDy=0;" parent="1" source="IiLUU5vo45s7bjQqZv7O-3" target="IiLUU5vo45s7bjQqZv7O-5" edge="1">
          <mxGeometry relative="1" as="geometry" />
        </mxCell>
        <mxCell id="IiLUU5vo45s7bjQqZv7O-3" value="Sensors&lt;br&gt;Data Processing" style="rounded=0;whiteSpace=wrap;html=1;" parent="1" vertex="1">
          <mxGeometry x="200" y="260" width="120" height="60" as="geometry" />
        </mxCell>
        <mxCell id="IiLUU5vo45s7bjQqZv7O-4" value="Environment" style="whiteSpace=wrap;html=1;" parent="1" vertex="1">
          <mxGeometry x="450" y="260" width="120" height="60" as="geometry" />
        </mxCell>
        <mxCell id="IiLUU5vo45s7bjQqZv7O-13" style="edgeStyle=orthogonalEdgeStyle;rounded=0;orthogonalLoop=1;jettySize=auto;html=1;exitX=0.5;exitY=1;exitDx=0;exitDy=0;entryX=0.5;entryY=0;entryDx=0;entryDy=0;" parent="1" source="IiLUU5vo45s7bjQqZv7O-5" target="IiLUU5vo45s7bjQqZv7O-6" edge="1">
          <mxGeometry relative="1" as="geometry">
            <Array as="points">
              <mxPoint x="260" y="440" />
              <mxPoint x="260" y="440" />
            </Array>
          </mxGeometry>
        </mxCell>
        <mxCell id="IiLUU5vo45s7bjQqZv7O-5" value="Localization and Mapping" style="whiteSpace=wrap;html=1;fillColor=#fff2cc;strokeColor=#d6b656;" parent="1" vertex="1">
          <mxGeometry x="200" y="360" width="120" height="60" as="geometry" />
        </mxCell>
        <mxCell id="IiLUU5vo45s7bjQqZv7O-21" style="rounded=0;orthogonalLoop=1;jettySize=auto;html=1;entryX=0;entryY=0.5;entryDx=0;entryDy=0;startArrow=classic;startFill=1;" parent="1" source="IiLUU5vo45s7bjQqZv7O-6" target="IiLUU5vo45s7bjQqZv7O-7" edge="1">
          <mxGeometry relative="1" as="geometry" />
        </mxCell>
        <mxCell id="IiLUU5vo45s7bjQqZv7O-6" value="Cognition" style="whiteSpace=wrap;html=1;" parent="1" vertex="1">
          <mxGeometry x="200" y="455" width="120" height="30" as="geometry" />
        </mxCell>
        <mxCell id="IiLUU5vo45s7bjQqZv7O-22" style="edgeStyle=orthogonalEdgeStyle;rounded=0;orthogonalLoop=1;jettySize=auto;html=1;entryX=0.5;entryY=1;entryDx=0;entryDy=0;exitX=0.25;exitY=0;exitDx=0;exitDy=0;" parent="1" source="IiLUU5vo45s7bjQqZv7O-7" target="IiLUU5vo45s7bjQqZv7O-9" edge="1">
          <mxGeometry relative="1" as="geometry">
            <mxPoint x="430" y="440" as="sourcePoint" />
            <Array as="points">
              <mxPoint x="420" y="420" />
              <mxPoint x="420" y="420" />
            </Array>
          </mxGeometry>
        </mxCell>
        <mxCell id="IiLUU5vo45s7bjQqZv7O-7" value="&lt;b&gt;Path Planning&lt;/b&gt;&lt;br&gt;&lt;font style=&quot;font-size: 8px;&quot;&gt;Local and Global Path&lt;/font&gt;" style="whiteSpace=wrap;html=1;" parent="1" vertex="1">
          <mxGeometry x="370" y="440" width="200" height="60" as="geometry" />
        </mxCell>
        <mxCell id="IiLUU5vo45s7bjQqZv7O-20" style="rounded=0;orthogonalLoop=1;jettySize=auto;html=1;entryX=1.033;entryY=0.507;entryDx=0;entryDy=0;entryPerimeter=0;" parent="1" source="IiLUU5vo45s7bjQqZv7O-4" target="IiLUU5vo45s7bjQqZv7O-3" edge="1">
          <mxGeometry relative="1" as="geometry" />
        </mxCell>
        <mxCell id="IiLUU5vo45s7bjQqZv7O-24" value="Perception" style="text;html=1;align=center;verticalAlign=middle;whiteSpace=wrap;rounded=0;rotation=270;fillColor=none;strokeColor=none;fontColor=#006600;" parent="1" vertex="1">
          <mxGeometry x="120" y="365" width="90" height="30" as="geometry" />
        </mxCell>
        <mxCell id="IiLUU5vo45s7bjQqZv7O-27" value="Planning and Navigation" style="text;html=1;align=center;verticalAlign=middle;whiteSpace=wrap;rounded=0;fontColor=#990000;" parent="1" vertex="1">
          <mxGeometry x="390" y="510" width="160" height="30" as="geometry" />
        </mxCell>
        <mxCell id="abV-EUEIfHx2oPkgEosm-1" style="edgeStyle=orthogonalEdgeStyle;rounded=0;orthogonalLoop=1;jettySize=auto;html=1;entryX=0;entryY=0.5;entryDx=0;entryDy=0;startArrow=classic;startFill=1;" edge="1" parent="1" source="IiLUU5vo45s7bjQqZv7O-9" target="IiLUU5vo45s7bjQqZv7O-10">
          <mxGeometry relative="1" as="geometry" />
        </mxCell>
        <mxCell id="IiLUU5vo45s7bjQqZv7O-9" value="Motion Control" style="whiteSpace=wrap;html=1;" parent="1" vertex="1">
          <mxGeometry x="370" y="360" width="100" height="40" as="geometry" />
        </mxCell>
        <mxCell id="IiLUU5vo45s7bjQqZv7O-10" value="Actuators" style="whiteSpace=wrap;html=1;" parent="1" vertex="1">
          <mxGeometry x="500" y="360" width="70" height="40" as="geometry" />
        </mxCell>
        <mxCell id="abV-EUEIfHx2oPkgEosm-2" style="rounded=0;orthogonalLoop=1;jettySize=auto;html=1;entryX=0.708;entryY=1.032;entryDx=0;entryDy=0;entryPerimeter=0;" edge="1" parent="1" source="IiLUU5vo45s7bjQqZv7O-10" target="IiLUU5vo45s7bjQqZv7O-4">
          <mxGeometry relative="1" as="geometry" />
        </mxCell>
      </root>
    </mxGraphModel>
  </diagram>
</mxfile>
